<svg xmlns="http://www.w3.org/2000/svg" version="1.1" xmlns:xlink="http://www.w3.org/1999/xlink" width="1000" height="1000"><g clip-path="url(#SvgjsClipPath1055)"><rect width="1000" height="1000" fill="#ffffff"></rect><g transform="matrix(2.873563218390805,0,0,2.873563218390805,114.22413793103442,100)"><svg xmlns="http://www.w3.org/2000/svg" version="1.1" xmlns:xlink="http://www.w3.org/1999/xlink" width="268.5" height="278.4"><svg version="1.1" id="Warstwa_1" xmlns="http://www.w3.org/2000/svg" xmlns:xlink="http://www.w3.org/1999/xlink" x="0px" y="0px" viewBox="0 0 268.5 278.4" style="enable-background:new 0 0 268.5 278.4;" xml:space="preserve">
<g>
	<polyline points="217.2,229.6 134.3,278.4 0,199.9 134.3,121.5 268.5,199.9 243.3,214.6 134.3,151.8 53.1,200 132.8,246 
		166.4,228.6 110.9,195.8 135.3,181.8 	"></polyline>
	<polyline points="76.1,0 76.1,40.1 134.3,6.2 192.4,38.8 192.4,0 218.8,11.9 218.8,83.5 134.3,36 49.7,83.5 49.7,13.7 	"></polyline>
	<polyline points="26.3,24 26.3,123.7 134.3,63.9 242.3,128.8 242.3,22.7 268.5,37.8 268.5,172 134.3,93.6 0,172 0,37.8 	"></polyline>
</g>
</svg></svg></g></g><defs><clipPath id="SvgjsClipPath1055"><rect width="1000" height="1000" x="0" y="0" rx="350" ry="350"></rect></clipPath></defs></svg>