<svg xmlns="http://www.w3.org/2000/svg" xmlns:xlink="http://www.w3.org/1999/xlink" fill="none" height="86" viewBox="0 0 134 86" width="134"><clipPath id="a"><path d="m.75.5h132.5v85h-132.5z"></path></clipPath><g clip-path="url(#a)" fill="#fff"><path d="m92.9677 37.8059h26.0643v-10.7773h-26.0643zm26.0643 4.5719h-26.0643v10.7774h26.0643z"></path><path d="m15.577 26.7562c0-14.4979 11.6661-26.2562 26.0557-26.2562v26.2562h-26.0599z"></path><path d="m92.9677.677236c-.0986-.021607-.2402-.025928-.446-.025928-2.9466-.043213-5.876.060498-8.7882.617942-3.8043.72598-7.4157 1.99212-10.8426 3.79411-5.4813 2.88663-10.0534 6.86654-13.9092 11.71934-1.5312 1.9273-3.0538 3.8719-4.7179 5.6825-1.8314 1.9878-4.0788 3.4225-6.7552 3.9497-1.3682.2679-2.8007.229-4.2032.3068-.5447.0303-1.1023.013-1.677.0087v26.4247c.0901.0043 4.4949-.0086 6.5579-.1556 4.6836-.337 9.1227-1.6464 13.3431-3.7033 6.3777-3.1113 11.5331-7.6919 15.8435-13.3139 1.424-1.8539 2.805-3.7552 4.5635-5.3239 1.9515-1.7458 4.1475-3.0422 6.7552-3.4224 1.2781-.1859 2.9294-.1254 4.2675-.1513v-26.407464z"></path><path d="m16.0274 78.9747c1.4626 0 2.6549-1.2013 2.6549-2.6749 0-1.4735-1.1923-2.7051-2.6549-2.7051h-10.11345c-2.83502 0-5.16395-2.3162-5.16395-5.1726s2.32893-5.1726 5.16395-5.1726h13.90495v2.4934h-13.01284c-1.46254 0-2.65488 1.2013-2.65488 2.6749 0 1.4735 1.19234 2.6749 2.65488 2.6749h10.11344c2.835 0 5.164 2.3464 5.164 5.2028s-2.329 5.1726-5.164 5.1726h-15.39319v-2.4977h14.50109z"></path><path d="m35.2722 69.5674h-5.2498l-3.3325 3.7379v-3.7379h-2.8308v15.9369h2.8308v-4.6626h8.578c2.3761 0 4.3061-1.9489 4.3061-4.3386v-2.5928c0-2.394-1.93-4.3386-4.3061-4.3386m-1.201 2.0397c1.7671 0 2.7021.8383 2.7021 2.4242v2.3422c0 1.5859-.935 2.4242-2.7021 2.4242h-7.3813v-2.4459l4.2504-4.7447z"></path><path d="m56.4684 73.8368c-.0343-2.3594-1.9515-4.2694-4.3062-4.2694h-6.3949c-2.3632 0-4.2847 1.9446-4.2847 4.3386v2.5927c0 2.3897 1.9215 4.3386 4.2847 4.3386h9.3028v-2.0396h-8.0804c-1.7671 0-2.6978-.8383-2.6978-2.4243v-.1555h12.1765zm-2.8308.1902v.1512h-9.3457v-.1512c0-1.586.935-2.4243 2.6978-2.4243h3.9673c1.7499 0 2.6763.8383 2.6763 2.4243"></path><path d="m58.2226 73.9059v2.5928c0 2.394 1.93 4.3386 4.3061 4.3386h9.6246v-2.0397h-8.4236c-1.7499 0-2.6764-.8383-2.6764-2.4242v-2.3465c0-1.5859.9265-2.4243 2.6764-2.4243h8.4236v-2.0396h-9.6246c-2.3761 0-4.3061 1.9446-4.3061 4.3386"></path><path d="m77.566 65.7429h-2.8051v3.8244h-1.3982v2.0396h1.3982v9.2303h2.8051v-9.2303h3.5555v-2.0396h-3.5555z"></path><path d="m85.5907 73.3096v-3.7422h-2.8308v11.2699h2.8308v-4.4855l4.2504-4.7448h2.9508v-2.0396h-3.8472z"></path><path d="m93.7869 73.906v2.5927c0 2.394 1.9215 4.3386 4.2847 4.3386h5.2494l3.354-3.7422v3.7422h2.831v-11.2699h-11.4344c-2.3632 0-4.2847 1.9446-4.2847 4.3386zm5.5071 4.8917c-1.7671 0-2.7021-.8383-2.7021-2.4243v-2.3464c0-1.586.935-2.4243 2.7021-2.4243h7.377v2.4459l-4.25 4.7448h-3.1313z"></path><path d="m114.966 65.7429h-2.831v15.0943h2.831z"></path><path d="m129.321 69.5674-4.456 4.196-4.456-4.196h-3.933l6.326 5.6479-6.189 5.501-.137.121h3.933l4.456-4.1959 4.435 4.1786.021.0173h3.929l-6.301-5.622 6.301-5.6479z"></path></g></svg>